# xmcd
#
# Track frame offsets:
#	150
#	18517
#	30547
#
# Disc length: 592 seconds
#
# Revision: 12
# Processed by: cddbd v1.5.2PL0 Copyright (c) Steve Scherf et al.
# Submitted via: EZCDAudioConverter 4.0.5.1
#
DISCID=19024e03
DTITLE=Dave Lindholm and Canpaza Gypsys
DYEAR=1994
DGENRE=Rock and Roll
TTITLE0=Rock and Roll and Richards
TTITLE1=Take the 1st Train
TTITLE2=More Than A Lover
EXTD=
EXTT0=
EXTT1=
EXTT2=
PLAYORDER=
